# xmcd
#
# Track frame offsets: 
#        150
#        13762
#        25472
#        38730
#        50335
#        63315
#        76382
#        91467
#        104222
#        117390
#        131877
#        146750
#        159070
#        173525
#        188265
#        201042
#        216282
#        228715
#        242685
#        255497
#        268420
#        281130
#        292382
#        304545
#        315390
#
# Disc length: 4406 seconds
#
# Revision: 3
# Processed by: cddbd v1.5.2PL0 Copyright (c) Steve Scherf et al.
# Submitted via: ExactAudioCopy v1.0b3
#
DISCID=72113419
DTITLE=Various Artist - Flashbacks - Copulation Blues - Hot and Sexy 19
DTITLE=26-1940 (Vol.3)
DYEAR=2000
DGENRE=Swing
TTITLE0=Alberta Hunter - You Can't Tell The Difference After Dark
TTITLE1=Oscar's Chicago Swingers - New Rubbing On That Darn Old Thing
TTITLE2=Sophie Tucker - He Hadn't Up Till Yesterday
TTITLE3=Oscar's Chicago Swingers - I Wonder Who's Boogiein' My Woogie 
TTITLE3=Now
TTITLE4=The Mississppi Mud Mashers - Bring It On Home To Grandma
TTITLE5=Frankie 'Halfpint' Jaxon With The Harlem Hamfats - Wet It (Let
TTITLE5=The Good Work Go On)
TTITLE6=Cab Calloway and His Orchestra - Nobody's Sweetheart
TTITLE7=Mary Dixon - Daddy, You Got Ev'rything
TTITLE8=Ethel Waters - My Handy Man
TTITLE9=Butterbeans and Suzie - Elevator Papa, Switchboard Mama
TTITLE10=Lil Johnson and Black Bob - Press My Button, Ring My Bell
TTITLE11=Bea Foote - Try And Get It
TTITLE12=State Street Swingers - Don't Tear My Clothes (No.2)
TTITLE13=Victoria Spivey - Black Snake Blues
TTITLE14=Washboard Rhythm Kings - Street Walkin' Blues
TTITLE15=Tampa Red's Hokum Jug Band With Frankie 'Halfpint' Jaxon - My
TTITLE15=Daddy Rocks Me (With One Steady Roll)
TTITLE16=The Hokum Boys - Caught Us Doin' It
TTITLE17=Clarence Williams - Organ Grinder Blues
TTITLE18=Buddy Burton and Irene Sanders - Electric Man
TTITLE19=Blind Boy Fuller - Shake It, Baby
TTITLE20=Bob Howe and Frankie Griggs - The Hottest Stuff In Town
TTITLE21=The Light Crust Doughboys - Pussy, Pussy, Pussy
TTITLE22=Mae West - A Guy What Takes His Time
TTITLE23=Art Fowler and His Ukulele - No Wonder She's A Blushing Bride
TTITLE24=Lucille Bogan - Shave 'em Dry
EXTD=
EXTT0=
EXTT1=
EXTT2=
EXTT3=
EXTT4=
EXTT5=
EXTT6=
EXTT7=
EXTT8=
EXTT9=
EXTT10=
EXTT11=
EXTT12=
EXTT13=
EXTT14=
EXTT15=
EXTT16=
EXTT17=
EXTT18=
EXTT19=
EXTT20=
EXTT21=
EXTT22=
EXTT23=
EXTT24=
PLAYORDER=
